<svg width="512" height="512" viewBox="0 0 512 512" xmlns="http://www.w3.org/2000/svg">
  <defs>
    <linearGradient id="bg" x1="0%" y1="0%" x2="100%" y2="100%">
      <stop offset="0%" style="stop-color:#e0e7ff;stop-opacity:1" />
      <stop offset="100%" style="stop-color:#c7d2fe;stop-opacity:1" />
    </linearGradient>
  </defs>
  
  <!-- Background -->
  <rect width="512" height="512" rx="128" fill="url(#bg)"/>
  
  <!-- Life Tiles Grid -->
  <g transform="translate(96, 96)">
    <!-- Daily Challenge Tile -->
    <rect x="0" y="0" width="140" height="140" rx="20" fill="#3730a3" opacity="0.9"/>
    <circle cx="70" cy="70" r="25" fill="white" opacity="0.9"/>
    <circle cx="70" cy="70" r="15" fill="#3730a3"/>
    
    <!-- To-Do List Tile -->
    <rect x="160" y="0" width="140" height="140" rx="20" fill="#059669" opacity="0.9"/>
    <rect x="180" y="30" width="100" height="8" rx="4" fill="white" opacity="0.9"/>
    <rect x="180" y="50" width="80" height="8" rx="4" fill="white" opacity="0.9"/>
    <rect x="180" y="70" width="90" height="8" rx="4" fill="white" opacity="0.9"/>
    <rect x="180" y="90" width="70" height="8" rx="4" fill="white" opacity="0.9"/>
    
    <!-- Books & Films Tile -->
    <rect x="0" y="160" width="140" height="140" rx="20" fill="#dc2626" opacity="0.9"/>
    <rect x="20" y="180" width="25" height="100" rx="4" fill="white" opacity="0.9"/>
    <rect x="55" y="180" width="25" height="100" rx="4" fill="white" opacity="0.9"/>
    <rect x="90" y="180" width="25" height="100" rx="4" fill="white" opacity="0.9"/>
    
    <!-- Film Reel -->
    <rect x="160" y="160" width="140" height="140" rx="20" fill="#7c3aed" opacity="0.9"/>
    <circle cx="230" cy="230" r="35" fill="white" opacity="0.9"/>
    <circle cx="230" cy="230" r="25" fill="#7c3aed"/>
    <circle cx="230" cy="230" r="15" fill="white" opacity="0.9"/>
    <circle cx="230" cy="230" r="5" fill="#7c3aed"/>
  </g>
</svg>
